<svg width="120" height="100" viewBox="0 0 120 100" fill="none" xmlns="http://www.w3.org/2000/svg">
<g id="polygons">
<g id="lightGroup">
<path id="light" opacity="0.6" d="M79.1799 46.2558C81.5225 47.8156 81.5646 51.2426 79.261 52.8594L61.9957 64.9775C59.3634 66.8251 55.7375 64.9684 55.698 61.7526L55.4057 37.9439C55.3662 34.7281 58.9453 32.783 61.6223 34.5653L79.1799 46.2558Z" fill="#63FBBF"/>
</g>
<g id="darkGroup">
<path id="dark2" opacity="0.6" d="M68.4026 46.2558C70.7451 47.8156 70.7872 51.2426 68.4837 52.8594L51.2184 64.9775C48.586 66.8251 44.9602 64.9684 44.9207 61.7526L44.6283 37.9439C44.5888 34.7281 48.168 32.783 50.8449 34.5653L68.4026 46.2558Z" fill="#635BFF"/>
<path id="dark1" opacity="0.6" d="M68.4065 46.5244C70.749 48.0841 70.7911 51.5111 68.4876 53.1279L51.2223 65.2461C48.5899 67.0936 44.9641 65.2369 44.9246 62.0211L44.6322 38.2125C44.5928 34.9967 48.1719 33.0515 50.8488 34.8339L68.4065 46.5244Z" fill="#635BFF"/>
</g>
</g>
</svg>
