<?xml version='1.0' encoding='utf-8'?>
<svg xmlns="http://www.w3.org/2000/svg" viewBox="0 0 926.89 928.87"><defs><style>.ac194e93-7069-459b-81d2-f3ba98dc232c,.b5334fe3-6351-41df-a076-5ed68919367e{stroke:#000;stroke-miterlimit:10;}.ac194e93-7069-459b-81d2-f3ba98dc232c{stroke-width:8px;}.b5334fe3-6351-41df-a076-5ed68919367e{fill:none;stroke-width:2px;stroke-dasharray:12;opacity:0.5;}</style></defs><g id="a03c0df3-1c87-415f-ba02-32b6b94d759a" data-name="Ebene 2"><circle class="ac194e93-7069-459b-81d2-f3ba98dc232c" cx="243.91" cy="245.11" r="4.3"/><circle class="ac194e93-7069-459b-81d2-f3ba98dc232c" cx="266.79" cy="422.36" r="4.3"/><circle class="ac194e93-7069-459b-81d2-f3ba98dc232c" cx="539.14" cy="144.15" r="4.3"/><circle class="ac194e93-7069-459b-81d2-f3ba98dc232c" cx="407.66" cy="506.89" r="4.3"/><circle class="ac194e93-7069-459b-81d2-f3ba98dc232c" cx="605.14" cy="476.82" r="4.3"/><circle class="ac194e93-7069-459b-81d2-f3ba98dc232c" cx="605.14" cy="276.47" r="4.3"/><circle class="ac194e93-7069-459b-81d2-f3ba98dc232c" cx="780.44" cy="401.69" r="4.3"/><circle class="ac194e93-7069-459b-81d2-f3ba98dc232c" cx="780.44" cy="201.34" r="4.3"/><circle class="ac194e93-7069-459b-81d2-f3ba98dc232c" cx="392.27" cy="76.12" r="4.3"/><circle class="ac194e93-7069-459b-81d2-f3ba98dc232c" cx="179.4" cy="301.52" r="4.3"/><circle class="ac194e93-7069-459b-81d2-f3ba98dc232c" cx="404.79" cy="301.52" r="4.3"/><circle class="ac194e93-7069-459b-81d2-f3ba98dc232c" cx="667.75" cy="702.21" r="4.3"/><circle class="ac194e93-7069-459b-81d2-f3ba98dc232c" cx="792.97" cy="576.99" r="4.3"/><circle class="ac194e93-7069-459b-81d2-f3ba98dc232c" cx="417.31" cy="702.21" r="4.3"/><circle class="ac194e93-7069-459b-81d2-f3ba98dc232c" cx="417.31" cy="827.43" r="4.3"/><circle class="ac194e93-7069-459b-81d2-f3ba98dc232c" cx="542.53" cy="852.47" r="4.3"/><circle class="ac194e93-7069-459b-81d2-f3ba98dc232c" cx="223.75" cy="660.99" r="4.3"/><circle class="ac194e93-7069-459b-81d2-f3ba98dc232c" cx="52.62" cy="475.25" r="4.3"/><circle class="ac194e93-7069-459b-81d2-f3ba98dc232c" cx="188.27" cy="521.17" r="4.3"/><circle class="ac194e93-7069-459b-81d2-f3ba98dc232c" cx="242.01" cy="770.04" r="4.3"/><circle class="ac194e93-7069-459b-81d2-f3ba98dc232c" cx="549.31" cy="619.25" r="4.3"/><circle class="ac194e93-7069-459b-81d2-f3ba98dc232c" cx="549.84" cy="357.34" r="4.3"/><circle class="ac194e93-7069-459b-81d2-f3ba98dc232c" cx="375.57" cy="147.6" r="4.3"/><circle class="ac194e93-7069-459b-81d2-f3ba98dc232c" cx="188.27" cy="99.6" r="4.3"/><circle class="ac194e93-7069-459b-81d2-f3ba98dc232c" cx="316.62" cy="28.12" r="4.3"/><circle class="ac194e93-7069-459b-81d2-f3ba98dc232c" cx="514.36" cy="8.3" r="4.3"/><circle class="ac194e93-7069-459b-81d2-f3ba98dc232c" cx="741.84" cy="82.39" r="4.3"/><circle class="ac194e93-7069-459b-81d2-f3ba98dc232c" cx="832.1" cy="188.17" r="4.3"/><circle class="ac194e93-7069-459b-81d2-f3ba98dc232c" cx="908.27" cy="369.86" r="4.3"/><circle class="ac194e93-7069-459b-81d2-f3ba98dc232c" cx="918.59" cy="516.99" r="4.3"/><circle class="ac194e93-7069-459b-81d2-f3ba98dc232c" cx="858.71" cy="690.73" r="4.3"/><circle class="ac194e93-7069-459b-81d2-f3ba98dc232c" cx="765.04" cy="810.73" r="4.3"/><circle class="ac194e93-7069-459b-81d2-f3ba98dc232c" cx="639.82" cy="885.07" r="4.3"/><circle class="ac194e93-7069-459b-81d2-f3ba98dc232c" cx="470.01" cy="920.57" r="4.3"/><circle class="ac194e93-7069-459b-81d2-f3ba98dc232c" cx="292.62" cy="889.37" r="4.3"/><circle class="ac194e93-7069-459b-81d2-f3ba98dc232c" cx="119.53" cy="770.04" r="4.3"/><circle class="ac194e93-7069-459b-81d2-f3ba98dc232c" cx="29.66" cy="614.04" r="4.3"/><circle class="ac194e93-7069-459b-81d2-f3ba98dc232c" cx="8.3" cy="397.52" r="4.3"/><circle class="ac194e93-7069-459b-81d2-f3ba98dc232c" cx="71.4" cy="221.69" r="4.3"/><circle class="ac194e93-7069-459b-81d2-f3ba98dc232c" cx="550.88" cy="274.45" r="4.3"/><circle class="ac194e93-7069-459b-81d2-f3ba98dc232c" cx="363.44" cy="605.1" r="4.3"/><circle class="ac194e93-7069-459b-81d2-f3ba98dc232c" cx="461.28" cy="375.6" r="4.3"/><circle class="ac194e93-7069-459b-81d2-f3ba98dc232c" cx="668.66" cy="164.1" r="4.3"/><circle class="ac194e93-7069-459b-81d2-f3ba98dc232c" cx="734.79" cy="490.25" r="4.3"/><circle class="ac194e93-7069-459b-81d2-f3ba98dc232c" cx="680.01" cy="581.29" r="4.3"/><circle class="ac194e93-7069-459b-81d2-f3ba98dc232c" cx="549.31" cy="750.08" r="4.3"/></g><g id="bb49c955-2e68-495e-ad48-b642344d9b18" data-name="Ebene 3"><line class="b5334fe3-6351-41df-a076-5ed68919367e" x1="514.36" y1="8.3" x2="741.84" y2="82.39"/><line class="b5334fe3-6351-41df-a076-5ed68919367e" x1="316.62" y1="28.12" x2="514.36" y2="8.3"/><line class="b5334fe3-6351-41df-a076-5ed68919367e" x1="188.27" y1="99.6" x2="316.62" y2="28.12"/><line class="b5334fe3-6351-41df-a076-5ed68919367e" x1="71.4" y1="221.69" x2="188.27" y2="99.6"/><line class="b5334fe3-6351-41df-a076-5ed68919367e" x1="8.3" y1="397.52" x2="71.4" y2="221.69"/><line class="b5334fe3-6351-41df-a076-5ed68919367e" x1="29.66" y1="614.04" x2="8.3" y2="397.52"/><line class="b5334fe3-6351-41df-a076-5ed68919367e" x1="119.53" y1="770.04" x2="29.66" y2="614.04"/><line class="b5334fe3-6351-41df-a076-5ed68919367e" x1="292.62" y1="889.37" x2="119.53" y2="770.04"/><line class="b5334fe3-6351-41df-a076-5ed68919367e" x1="470.01" y1="920.57" x2="288.32" y2="889.37"/><line class="b5334fe3-6351-41df-a076-5ed68919367e" x1="639.82" y1="885.07" x2="470.01" y2="920.57"/><line class="b5334fe3-6351-41df-a076-5ed68919367e" x1="765.04" y1="810.73" x2="639.82" y2="889.37"/><line class="b5334fe3-6351-41df-a076-5ed68919367e" x1="858.71" y1="690.73" x2="765.04" y2="810.73"/><line class="b5334fe3-6351-41df-a076-5ed68919367e" x1="918.59" y1="516.99" x2="856.06" y2="694.12"/><line class="b5334fe3-6351-41df-a076-5ed68919367e" x1="908.27" y1="369.86" x2="918.59" y2="516.99"/><line class="b5334fe3-6351-41df-a076-5ed68919367e" x1="832.1" y1="188.17" x2="908.27" y2="369.86"/><line class="b5334fe3-6351-41df-a076-5ed68919367e" x1="741.84" y1="82.39" x2="832.1" y2="188.17"/><line class="b5334fe3-6351-41df-a076-5ed68919367e" x1="243.91" y1="245.11" x2="71.4" y2="221.69"/><line class="b5334fe3-6351-41df-a076-5ed68919367e" x1="188.27" y1="99.6" x2="243.91" y2="245.11"/><line class="b5334fe3-6351-41df-a076-5ed68919367e" x1="179.4" y1="301.52" x2="71.4" y2="221.69"/><line class="b5334fe3-6351-41df-a076-5ed68919367e" x1="188.27" y1="99.6" x2="179.4" y2="301.52"/><line class="b5334fe3-6351-41df-a076-5ed68919367e" x1="243.91" y1="245.11" x2="179.4" y2="301.52"/><line class="b5334fe3-6351-41df-a076-5ed68919367e" x1="188.27" y1="99.6" x2="375.57" y2="147.6"/><line class="b5334fe3-6351-41df-a076-5ed68919367e" x1="404.79" y1="301.52" x2="188.27" y2="99.6"/><line class="b5334fe3-6351-41df-a076-5ed68919367e" x1="179.4" y1="301.52" x2="404.79" y2="301.52"/><line class="b5334fe3-6351-41df-a076-5ed68919367e" x1="243.91" y1="245.11" x2="404.79" y2="301.52"/><line class="b5334fe3-6351-41df-a076-5ed68919367e" x1="392.27" y1="76.12" x2="375.57" y2="147.6"/><line class="b5334fe3-6351-41df-a076-5ed68919367e" x1="316.62" y1="30.47" x2="392.27" y2="76.12"/><line class="b5334fe3-6351-41df-a076-5ed68919367e" x1="404.79" y1="301.52" x2="316.62" y2="28.12"/><line class="b5334fe3-6351-41df-a076-5ed68919367e" x1="375.57" y1="147.6" x2="404.79" y2="305.81"/><line class="b5334fe3-6351-41df-a076-5ed68919367e" x1="316.62" y1="30.47" x2="375.57" y2="147.6"/><line class="b5334fe3-6351-41df-a076-5ed68919367e" x1="243.91" y1="245.11" x2="375.57" y2="147.6"/><line class="b5334fe3-6351-41df-a076-5ed68919367e" x1="404.79" y1="301.52" x2="539.14" y2="144.15"/><line class="b5334fe3-6351-41df-a076-5ed68919367e" x1="375.57" y1="147.6" x2="539.14" y2="144.15"/><line class="b5334fe3-6351-41df-a076-5ed68919367e" x1="514.36" y1="8.3" x2="392.27" y2="76.12"/><line class="b5334fe3-6351-41df-a076-5ed68919367e" x1="539.14" y1="144.15" x2="514.36" y2="8.3"/><line class="b5334fe3-6351-41df-a076-5ed68919367e" x1="741.84" y1="82.39" x2="668.66" y2="164.1"/><line class="b5334fe3-6351-41df-a076-5ed68919367e" x1="539.14" y1="144.15" x2="672.96" y2="164.1"/><line class="b5334fe3-6351-41df-a076-5ed68919367e" x1="550.88" y1="274.45" x2="539.14" y2="144.15"/><line class="b5334fe3-6351-41df-a076-5ed68919367e" x1="605.14" y1="276.47" x2="668.66" y2="164.1"/><line class="b5334fe3-6351-41df-a076-5ed68919367e" x1="550.88" y1="274.45" x2="668.66" y2="164.1"/><line class="b5334fe3-6351-41df-a076-5ed68919367e" x1="461.28" y1="375.6" x2="550.88" y2="274.45"/><line class="b5334fe3-6351-41df-a076-5ed68919367e" x1="549.84" y1="357.34" x2="550.88" y2="274.45"/><line class="b5334fe3-6351-41df-a076-5ed68919367e" x1="461.28" y1="375.6" x2="539.14" y2="144.15"/><line class="b5334fe3-6351-41df-a076-5ed68919367e" x1="549.84" y1="357.34" x2="404.79" y2="301.52"/><line class="b5334fe3-6351-41df-a076-5ed68919367e" x1="392.27" y1="76.12" x2="606.05" y2="278.75"/><line class="b5334fe3-6351-41df-a076-5ed68919367e" x1="514.36" y1="8.3" x2="668.66" y2="164.1"/><line class="b5334fe3-6351-41df-a076-5ed68919367e" x1="832.1" y1="188.17" x2="668.66" y2="164.1"/><line class="b5334fe3-6351-41df-a076-5ed68919367e" x1="780.44" y1="201.34" x2="741.84" y2="82.39"/><line class="b5334fe3-6351-41df-a076-5ed68919367e" x1="605.14" y1="276.47" x2="780.44" y2="201.34"/><line class="b5334fe3-6351-41df-a076-5ed68919367e" x1="780.44" y1="401.69" x2="832.1" y2="188.17"/><line class="b5334fe3-6351-41df-a076-5ed68919367e" x1="908.27" y1="369.86" x2="780.44" y2="201.34"/><line class="b5334fe3-6351-41df-a076-5ed68919367e" x1="549.84" y1="357.34" x2="605.14" y2="276.47"/><line class="b5334fe3-6351-41df-a076-5ed68919367e" x1="780.44" y1="401.69" x2="605.14" y2="276.47"/><line class="b5334fe3-6351-41df-a076-5ed68919367e" x1="668.66" y1="164.1" x2="780.44" y2="401.69"/><line class="b5334fe3-6351-41df-a076-5ed68919367e" x1="918.59" y1="516.99" x2="780.44" y2="401.69"/><line class="b5334fe3-6351-41df-a076-5ed68919367e" x1="908.27" y1="369.86" x2="734.79" y2="490.25"/><line class="b5334fe3-6351-41df-a076-5ed68919367e" x1="780.44" y1="401.69" x2="908.27" y2="369.86"/><line class="b5334fe3-6351-41df-a076-5ed68919367e" x1="605.14" y1="476.82" x2="549.84" y2="357.34"/><line class="b5334fe3-6351-41df-a076-5ed68919367e" x1="734.79" y1="490.25" x2="605.14" y2="276.47"/><line class="b5334fe3-6351-41df-a076-5ed68919367e" x1="780.44" y1="401.69" x2="605.14" y2="476.82"/><line class="b5334fe3-6351-41df-a076-5ed68919367e" x1="407.66" y1="506.89" x2="605.14" y2="476.82"/><line class="b5334fe3-6351-41df-a076-5ed68919367e" x1="266.79" y1="422.36" x2="461.28" y2="375.6"/><line class="b5334fe3-6351-41df-a076-5ed68919367e" x1="407.66" y1="506.89" x2="404.79" y2="301.52"/><line class="b5334fe3-6351-41df-a076-5ed68919367e" x1="461.28" y1="375.6" x2="605.14" y2="476.82"/><line class="b5334fe3-6351-41df-a076-5ed68919367e" x1="549.84" y1="357.34" x2="407.66" y2="506.89"/><line class="b5334fe3-6351-41df-a076-5ed68919367e" x1="266.79" y1="422.36" x2="363.44" y2="605.1"/><line class="b5334fe3-6351-41df-a076-5ed68919367e" x1="549.31" y1="619.25" x2="461.28" y2="375.6"/><line class="b5334fe3-6351-41df-a076-5ed68919367e" x1="407.66" y1="506.89" x2="179.4" y2="301.52"/><line class="b5334fe3-6351-41df-a076-5ed68919367e" x1="188.27" y1="521.17" x2="266.79" y2="422.36"/><line class="b5334fe3-6351-41df-a076-5ed68919367e" x1="52.62" y1="475.25" x2="404.79" y2="301.52"/><line class="b5334fe3-6351-41df-a076-5ed68919367e" x1="188.27" y1="521.17" x2="71.4" y2="221.69"/><line class="b5334fe3-6351-41df-a076-5ed68919367e" x1="266.79" y1="422.36" x2="8.3" y2="397.52"/><line class="b5334fe3-6351-41df-a076-5ed68919367e" x1="188.27" y1="521.17" x2="179.4" y2="301.52"/><line class="b5334fe3-6351-41df-a076-5ed68919367e" x1="29.66" y1="614.04" x2="179.4" y2="301.52"/><line class="b5334fe3-6351-41df-a076-5ed68919367e" x1="8.3" y1="397.52" x2="363.44" y2="605.1"/><line class="b5334fe3-6351-41df-a076-5ed68919367e" x1="188.27" y1="521.17" x2="407.66" y2="506.89"/><line class="b5334fe3-6351-41df-a076-5ed68919367e" x1="223.75" y1="656.7" x2="266.79" y2="422.36"/><line class="b5334fe3-6351-41df-a076-5ed68919367e" x1="29.66" y1="614.04" x2="223.75" y2="660.99"/><line class="b5334fe3-6351-41df-a076-5ed68919367e" x1="188.27" y1="521.17" x2="242.01" y2="770.04"/><line class="b5334fe3-6351-41df-a076-5ed68919367e" x1="223.75" y1="660.99" x2="52.62" y2="475.25"/><line class="b5334fe3-6351-41df-a076-5ed68919367e" x1="119.53" y1="770.04" x2="52.62" y2="475.25"/><line class="b5334fe3-6351-41df-a076-5ed68919367e" x1="363.44" y1="605.1" x2="119.53" y2="770.04"/><line class="b5334fe3-6351-41df-a076-5ed68919367e" x1="223.75" y1="660.99" x2="417.31" y2="827.43"/><line class="b5334fe3-6351-41df-a076-5ed68919367e" x1="242.01" y1="770.04" x2="417.31" y2="702.21"/><line class="b5334fe3-6351-41df-a076-5ed68919367e" x1="363.44" y1="605.1" x2="417.31" y2="827.43"/><line class="b5334fe3-6351-41df-a076-5ed68919367e" x1="417.31" y1="702.21" x2="407.66" y2="506.89"/><line class="b5334fe3-6351-41df-a076-5ed68919367e" x1="363.44" y1="605.1" x2="549.31" y2="619.25"/><line class="b5334fe3-6351-41df-a076-5ed68919367e" x1="292.62" y1="889.37" x2="266.79" y2="422.36"/><line class="b5334fe3-6351-41df-a076-5ed68919367e" x1="242.01" y1="770.04" x2="470.01" y2="920.57"/><line class="b5334fe3-6351-41df-a076-5ed68919367e" x1="417.31" y1="827.43" x2="470.01" y2="920.57"/><line class="b5334fe3-6351-41df-a076-5ed68919367e" x1="542.53" y1="852.47" x2="470.01" y2="920.57"/><line class="b5334fe3-6351-41df-a076-5ed68919367e" x1="639.82" y1="885.07" x2="542.53" y2="852.47"/><line class="b5334fe3-6351-41df-a076-5ed68919367e" x1="417.31" y1="827.43" x2="667.75" y2="702.21"/><line class="b5334fe3-6351-41df-a076-5ed68919367e" x1="549.31" y1="750.08" x2="549.31" y2="619.25"/><line class="b5334fe3-6351-41df-a076-5ed68919367e" x1="417.31" y1="702.21" x2="667.75" y2="702.21"/><line class="b5334fe3-6351-41df-a076-5ed68919367e" x1="542.53" y1="852.47" x2="549.31" y2="750.08"/><line class="b5334fe3-6351-41df-a076-5ed68919367e" x1="417.31" y1="702.21" x2="639.82" y2="885.07"/><line class="b5334fe3-6351-41df-a076-5ed68919367e" x1="549.31" y1="750.08" x2="242.01" y2="770.04"/><line class="b5334fe3-6351-41df-a076-5ed68919367e" x1="549.31" y1="619.25" x2="792.97" y2="576.99"/><line class="b5334fe3-6351-41df-a076-5ed68919367e" x1="680.01" y1="581.29" x2="667.75" y2="702.21"/><line class="b5334fe3-6351-41df-a076-5ed68919367e" x1="639.82" y1="885.07" x2="792.97" y2="576.99"/><line class="b5334fe3-6351-41df-a076-5ed68919367e" x1="605.14" y1="476.82" x2="667.75" y2="702.21"/><line class="b5334fe3-6351-41df-a076-5ed68919367e" x1="542.53" y1="852.47" x2="667.75" y2="702.21"/><line class="b5334fe3-6351-41df-a076-5ed68919367e" x1="765.04" y1="810.73" x2="792.97" y2="576.99"/><line class="b5334fe3-6351-41df-a076-5ed68919367e" x1="858.71" y1="690.73" x2="667.75" y2="702.21"/><line class="b5334fe3-6351-41df-a076-5ed68919367e" x1="680.01" y1="581.29" x2="765.04" y2="810.73"/><line class="b5334fe3-6351-41df-a076-5ed68919367e" x1="605.14" y1="476.82" x2="792.97" y2="576.99"/><line class="b5334fe3-6351-41df-a076-5ed68919367e" x1="680.01" y1="581.29" x2="734.79" y2="490.25"/><line class="b5334fe3-6351-41df-a076-5ed68919367e" x1="780.44" y1="401.69" x2="792.97" y2="576.99"/><line class="b5334fe3-6351-41df-a076-5ed68919367e" x1="918.59" y1="516.99" x2="407.66" y2="506.89"/><line class="b5334fe3-6351-41df-a076-5ed68919367e" x1="858.71" y1="690.73" x2="792.97" y2="576.99"/><line class="b5334fe3-6351-41df-a076-5ed68919367e" x1="918.59" y1="516.99" x2="792.97" y2="576.99"/><line class="b5334fe3-6351-41df-a076-5ed68919367e" x1="363.44" y1="605.1" x2="605.14" y2="476.82"/></g></svg>