<svg aria-hidden="true" style="position: absolute; width: 0; height: 0; overflow: hidden;" version="1.1" xmlns="http://www.w3.org/2000/svg" xmlns:xlink="http://www.w3.org/1999/xlink">
<defs>
<symbol id="icon-tools1" viewBox="0 0 31 32">
<path d="M0.211 5.646c-0.847 0.848-0.666 2.042 0.008 2.715 0.027 0.026 2.734 2.612 6.541 6.419 0.098 0.098 0.226 0.146 0.354 0.146s0.256-0.049 0.354-0.146c0.195-0.195 0.195-0.512 0-0.707-0.574-0.574-1.12-1.117-1.638-1.631l1.589-1.589c0.195-0.195 0.195-0.512 0-0.707s-0.512-0.195-0.707 0l-1.593 1.593c-0.891-0.88-1.676-1.648-2.315-2.271l3.615-3.615c0.195-0.195 0.195-0.512 0-0.707s-0.512-0.195-0.707 0l-3.626 3.626c-0.736-0.713-1.16-1.118-1.167-1.125-0.211-0.211-0.488-0.805 0-1.293l5-5c0.193-0.196 0.707-0.585 1.271-0.024 0.025 0.028 2.55 2.896 6.404 6.75 0.195 0.195 0.512 0.195 0.707 0s0.195-0.512 0-0.707c-3.83-3.829-6.336-6.675-6.382-6.727-0.932-0.93-2.056-0.651-2.707 0l-5.001 5zM21.419 24.146c-0.195-0.195-0.512-0.195-0.707 0l-1.591 1.59c-0.485-0.491-0.994-1.005-1.53-1.541-0.195-0.195-0.512-0.195-0.707 0s-0.195 0.512 0 0.707c3.704 3.703 6.291 6.469 6.328 6.509 0.343 0.344 0.813 0.533 1.323 0.533v0c0.525 0 1.056-0.205 1.385-0.535l4.998-5.057c0.629-0.629 0.665-1.696 0.078-2.285l-6.706-6.705c-0.195-0.195-0.512-0.195-0.707 0s-0.195 0.512 0 0.707l6.706 6.705c0.2 0.2 0.162 0.632-0.079 0.873l-4.999 5.057c-0.115 0.116-0.376 0.24-0.676 0.24 0 0 0 0 0 0-0.172 0-0.418-0.042-0.604-0.229-0.010-0.011-0.429-0.458-1.156-1.219l3.644-3.644c0.195-0.195 0.195-0.512 0-0.707s-0.512-0.195-0.707 0l-3.629 3.629c-0.624-0.649-1.389-1.438-2.26-2.326l1.596-1.596c0.195-0.194 0.195-0.51 0-0.706zM-0.293 31.829c0.096 0.098 0.225 0.15 0.358 0.15 0.048 0 0.096-0.007 0.143-0.021l10-2.979c0.081-0.024 0.153-0.067 0.212-0.127l17.090-17.205c0.024-0.024 0.036-0.055 0.054-0.082l3.656-3.656c0.294-0.295 0.457-0.686 0.457-1.103s-0.163-0.807-0.457-1.1l-5.235-5.234c-0.588-0.588-1.615-0.588-2.203 0l-3.739 3.739c-0.024 0.024-0.037 0.055-0.055 0.083l-17.116 17.117c-0.056 0.056-0.098 0.124-0.122 0.199l-3.16 9.715c-0.058 0.177-0.013 0.37 0.117 0.504zM20.425 5.271l1.039 1.039-15.523 15.565-1.727-0.392 16.211-16.212zM6.565 22.666l15.607-15.648 2.436 2.436-15.748 15.546h-2.295v-2.334zM26.449 11.296l-16.244 16.354-0.577-2.002 15.687-15.487 1.134 1.135zM3.558 22.359l2.007 0.456v2.685c0 0.276 0.224 0.5 0.5 0.5h2.624l0.634 2.2-8.488 2.529 2.723-8.37zM24.49 1.179c0.211-0.211 0.578-0.211 0.789 0l5.235 5.235c0.105 0.105 0.163 0.245 0.163 0.394 0 0.148-0.058 0.289-0.164 0.395l-3.371 3.372-6.023-6.023 3.371-3.373z"></path>
</symbol>
<symbol id="icon-briefcase" viewBox="0 0 38 32">
<path d="M37.5 18c-0.276 0-0.5 0.224-0.5 0.5v12c0 0.276-0.224 0.5-0.5 0.5h-35c-0.276 0-0.5-0.224-0.5-0.5v-12c0-0.276-0.224-0.5-0.5-0.5s-0.5 0.224-0.5 0.5v12c0 0.827 0.673 1.5 1.5 1.5h35c0.827 0 1.5-0.673 1.5-1.5v-12c0-0.276-0.224-0.5-0.5-0.5zM25.5 5c0.276 0 0.5-0.224 0.5-0.5v-3c0-0.827-0.673-1.5-1.5-1.5h-11c-0.827 0-1.5 0.673-1.5 1.5v3c0 0.276 0.224 0.5 0.5 0.5s0.5-0.224 0.5-0.5v-3c0-0.276 0.224-0.5 0.5-0.5h11c0.276 0 0.5 0.224 0.5 0.5v3c0 0.276 0.224 0.5 0.5 0.5zM36.5 7h-35c-0.827 0-1.5 0.673-1.5 1.5v4.958c0 2.778 9.456 6.5 19.125 6.5 9.543 0 18.875-3.722 18.875-6.5v-4.958c0-0.827-0.673-1.5-1.5-1.5zM37 13.458c0 1.764-8.457 5.5-17.875 5.5-9.55 0-18.125-3.735-18.125-5.5v-4.958c0-0.276 0.224-0.5 0.5-0.5h35c0.276 0 0.5 0.224 0.5 0.5v4.958zM19.125 23c0.943 0 1.923-0.039 2.914-0.116 0.275-0.021 0.481-0.262 0.459-0.538-0.021-0.275-0.252-0.486-0.538-0.459-2.014 0.157-3.909 0.15-5.919-0.020-0.264-0.027-0.517 0.181-0.54 0.456s0.181 0.517 0.456 0.54c1.076 0.091 2.142 0.137 3.168 0.137z"></path>
</symbol>
<symbol id="icon-lock" viewBox="0 0 32 32">
<path d="M25 13v-4c0-4.971-4.029-9-9-9s-9 4.029-9 9v4c-1.657 0-3 1.343-3 3v7c0 4.971 4.029 9 9 9h6c4.971 0 9-4.029 9-9v-7c0-1.658-1.344-3-3-3zM9 9c0-3.866 3.134-7 7-7s7 3.134 7 7v4h-2v-3.998c0-2.762-2.238-5-5-5s-5 2.238-5 5v3.998h-2v-4zM20 9v4h-8v-4c0-2.209 1.791-4 4-4s4 1.791 4 4zM26 19v4c0 3.859-3.141 7-7 7h-6c-3.859 0-7-3.141-7-7v-7c0-0.552 0.448-1 1-1 0.667 0 1.333 0 2 0h14c0.666 0 1.332 0 2 0 0.551 0 1 0.448 1 1v3zM16 19c1.104 0 2 0.895 2 2 0 0.609-0.328 1.768-0.666 2.682-0.273 0.738-0.552 1.316-1.334 1.316-0.719 0-1.061-0.584-1.333-1.326-0.334-0.912-0.667-2.065-0.667-2.672 0-1.105 0.896-2 2-2z"></path>
</symbol>
<symbol id="icon-lock1" viewBox="0 0 32 32">
<path d="M15 21.915v0 0c-0.583-0.206-1-0.762-1-1.415 0-0.828 0.672-1.5 1.5-1.5s1.5 0.672 1.5 1.5c0 0.653-0.417 1.209-1 1.415v2.594c0 0.263-0.224 0.491-0.5 0.491-0.268 0-0.5-0.22-0.5-0.491v-2.594zM14 22.5v1.998c0 0.829 0.666 1.502 1.5 1.502 0.828 0 1.5-0.671 1.5-1.502v-1.998c0.607-0.456 1-1.182 1-2 0-1.381-1.119-2.5-2.5-2.5s-2.5 1.119-2.5 2.5c0 0.818 0.393 1.544 1 2v0 0zM8 14v-3.501c0-4.143 3.358-7.499 7.5-7.499 4.134 0 7.5 3.358 7.5 7.499v3.501c1.659 0.005 3 1.35 3 3.009v9.981c0 1.673-1.347 3.009-3.009 3.009h-14.982c-1.663 0-3.009-1.347-3.009-3.009v-9.981c0-1.67 1.342-3.005 3-3.009v0 0zM9 14h1v-3.491c0-3.048 2.462-5.509 5.5-5.509 3.031 0 5.5 2.466 5.5 5.509v3.491h1v-3.507c0-3.586-2.917-6.493-6.5-6.493-3.59 0-6.5 2.908-6.5 6.493v3.507zM11 14h9v-3.499c0-2.486-2.020-4.501-4.5-4.501-2.485 0-4.5 2.009-4.5 4.501v3.499zM7.997 15c-1.103 0-1.997 0.897-1.997 2.006v9.988c0 1.108 0.891 2.006 1.997 2.006h15.005c1.103 0 1.997-0.897 1.997-2.006v-9.988c0-1.108-0.891-2.006-1.997-2.006h-15.005z"></path>
</symbol>
<symbol id="icon-eye1" viewBox="0 0 32 32">
<path d="M16 9v0 0c9 0 13 7 13 7s-4 7-13 7c-9 0-13-7-13-7s4-7 13-7zM16 10c-8 0-11.8 6-11.8 6s3.8 6 11.8 6c8 0 11.8-6 11.8-6s-3.8-6-11.8-6v0 0zM16 20v0 0c-2.209 0-4-1.791-4-4s1.791-4 4-4c2.209 0 4 1.791 4 4s-1.791 4-4 4zM16 19c1.657 0 3-1.343 3-3s-1.343-3-3-3c-1.657 0-3 1.343-3 3s1.343 3 3 3v0 0zM16 17c0.552 0 1-0.448 1-1s-0.448-1-1-1c-0.552 0-1 0.448-1 1s0.448 1 1 1v0 0z"></path>
</symbol>
<symbol id="icon-mail-dot-ru" viewBox="0 0 32 32">
<path fill="#168de2" style="fill: var(--color1, #168de2)" d="M15.447 7.023c2.445 0 4.744 1.081 6.432 2.773v0.005c0-0.812 0.547-1.424 1.305-1.424h0.193c1.188 0 1.431 1.123 1.431 1.479l0.007 12.633c-0.084 0.828 0.853 1.255 1.372 0.724 2.028-2.085 4.456-10.717-1.261-15.72-5.328-4.663-12.476-3.895-16.279-1.273-4.041 2.788-6.628 8.957-4.115 14.752 2.739 6.32 10.575 8.203 15.232 6.325 2.359-0.953 3.448 2.235 0.999 3.276-3.701 1.579-14.003 1.419-18.813-6.917-3.252-5.628-3.079-15.532 5.544-20.663 6.596-3.924 15.293-2.837 20.536 2.639 5.481 5.725 5.163 16.445-0.185 20.615-2.421 1.893-6.021 0.049-5.997-2.708l-0.025-0.904c-1.687 1.675-3.931 2.651-6.376 2.651-4.833 0-9.084-4.252-9.084-9.083 0-4.879 4.252-9.18 9.085-9.18zM21.528 15.853c-0.183-3.537-2.808-5.665-5.979-5.665h-0.12c-3.66 0-5.691 2.879-5.691 6.147 0 3.663 2.456 5.975 5.675 5.975 3.591 0 5.952-2.631 6.123-5.741z"></path>
</symbol>
<symbol id="icon-linkedin" viewBox="0 0 32 32">
<path fill="#0077b5" style="fill: var(--color2, #0077b5)" d="M27.263 27.269h-4.739v-7.425c0-1.771-0.036-4.049-2.469-4.049-2.471 0-2.848 1.927-2.848 3.919v7.556h-4.739v-15.269h4.552v2.081h0.061c0.636-1.2 2.183-2.467 4.493-2.467 4.801 0 5.689 3.16 5.689 7.273zM7.116 9.911c-1.525 0-2.751-1.235-2.751-2.753 0-1.517 1.227-2.751 2.751-2.751 1.52 0 2.752 1.233 2.752 2.751 0 1.519-1.233 2.753-2.752 2.753zM9.492 27.269h-4.752v-15.269h4.752zM29.633 0h-27.272c-1.305 0-2.361 1.032-2.361 2.305v27.389c0 1.275 1.056 2.305 2.361 2.305h27.268c1.304 0 2.371-1.031 2.371-2.305v-27.389c0-1.273-1.067-2.305-2.371-2.305z"></path>
</symbol>
<symbol id="icon-twitter" viewBox="0 0 32 32">
<path fill="#1da1f2" style="fill: var(--color3, #1da1f2)" d="M31.939 6.092c-1.18 0.519-2.44 0.872-3.767 1.033 1.352-0.815 2.392-2.099 2.884-3.631-1.268 0.74-2.673 1.279-4.169 1.579-1.195-1.279-2.897-2.079-4.788-2.079-3.623 0-6.56 2.937-6.56 6.556 0 0.52 0.060 1.020 0.169 1.499-5.453-0.257-10.287-2.876-13.521-6.835-0.569 0.963-0.888 2.081-0.888 3.3 0 2.28 1.16 4.284 2.917 5.461-1.076-0.035-2.088-0.331-2.971-0.821v0.081c0 3.18 2.257 5.832 5.261 6.436-0.551 0.148-1.132 0.228-1.728 0.228-0.419 0-0.82-0.040-1.221-0.115 0.841 2.604 3.26 4.503 6.139 4.556-2.24 1.759-5.079 2.807-8.136 2.807-0.52 0-1.039-0.031-1.56-0.089 2.919 1.859 6.357 2.945 10.076 2.945 12.072 0 18.665-9.995 18.665-18.648 0-0.279 0-0.56-0.020-0.84 1.281-0.919 2.4-2.080 3.28-3.397z"></path>
</symbol>
</defs>
</svg>
